M48
; DRILL file {KiCad (7.0.0)} date Mon May 15 14:28:00 2023
; FORMAT={-:-/ absolute / metric / decimal}
; #@! TF.CreationDate,2023-05-15T14:28:00+03:00
; #@! TF.GenerationSoftware,Kicad,Pcbnew,(7.0.0)
; #@! TF.FileFunction,Plated,1,2,PTH
FMAT,2
METRIC
; #@! TA.AperFunction,Plated,PTH,ViaDrill
T1C0.300
; #@! TA.AperFunction,Plated,PTH,ComponentDrill
T2C0.330
; #@! TA.AperFunction,Plated,PTH,ComponentDrill
T3C0.800
; #@! TA.AperFunction,Plated,PTH,ComponentDrill
T4C1.000
; #@! TA.AperFunction,Plated,PTH,ComponentDrill
T5C1.100
; #@! TA.AperFunction,Plated,PTH,ComponentDrill
T6C1.320
; #@! TA.AperFunction,Plated,PTH,ComponentDrill
T7C1.850
; #@! TA.AperFunction,Plated,PTH,ComponentDrill
T8C4.550
%
G90
G05
T1
X66.04Y-58.92
X71.07Y-67.81
X71.12Y-121.92
X75.325Y-132.135
X76.15Y-58.92
X82.5Y-60.19
X82.5Y-70.35
X85.04Y-123.69
X85.04Y-133.85
X86.31Y-124.96
X90.12Y-107.18
X91.39Y-67.81
X95.2Y-132.58
X99.01Y-105.91
X100.28Y-126.23
X103.61Y-55.96
X154.89Y-71.62
X162.51Y-95.75
X176.48Y-105.91
X190.0Y-90.0
X190.0Y-94.0
X190.0Y-97.0
X190.0Y-101.0
X206.14Y-90.483
T2
X75.6Y-65.5
X75.6Y-66.8
X75.6Y-68.1
X76.9Y-65.5
X76.9Y-66.8
X76.9Y-68.1
X79.537Y-130.2
X79.537Y-131.5
X79.537Y-132.8
X80.837Y-130.2
X80.837Y-131.5
X80.837Y-132.8
T3
X68.58Y-60.865
X68.58Y-62.865
X73.025Y-125.0
X73.025Y-127.0
T4
X79.3Y-39.7
X81.46Y-50.36
X81.46Y-52.9
X81.48Y-111.3
X81.48Y-113.84
X81.84Y-39.7
X84.0Y-50.36
X84.0Y-52.9
X84.02Y-111.3
X84.02Y-113.84
X84.38Y-39.7
X86.54Y-50.36
X86.54Y-52.9
X86.56Y-111.3
X86.56Y-113.84
X86.92Y-39.7
X89.08Y-50.36
X89.08Y-52.9
X89.1Y-111.3
X89.1Y-113.84
X91.62Y-50.36
X91.62Y-52.9
X91.64Y-111.3
X91.64Y-113.84
X94.16Y-50.36
X94.16Y-52.9
X94.18Y-111.3
X94.18Y-113.84
X96.7Y-50.36
X96.7Y-52.9
X96.72Y-111.3
X96.72Y-113.84
X99.24Y-50.36
X99.24Y-52.9
X99.26Y-111.3
X99.26Y-113.84
X101.78Y-50.36
X101.78Y-52.9
X101.8Y-111.3
X101.8Y-113.84
X104.3Y-44.7
X104.32Y-50.36
X104.32Y-52.9
X104.34Y-111.3
X104.34Y-113.84
X106.84Y-44.7
X106.86Y-50.36
X106.86Y-52.9
X106.88Y-111.3
X106.88Y-113.84
X107.69Y-74.1
X107.69Y-76.64
X107.69Y-79.18
X107.69Y-81.72
X109.4Y-50.36
X109.4Y-52.9
X109.42Y-111.3
X109.42Y-113.84
X110.23Y-74.1
X110.23Y-76.64
X110.23Y-79.18
X110.23Y-81.72
X111.94Y-50.36
X111.94Y-52.9
X111.96Y-111.3
X111.96Y-113.84
X114.48Y-50.36
X114.48Y-52.9
X114.5Y-111.3
X114.5Y-113.84
X114.6Y-86.87
X117.02Y-50.36
X117.02Y-52.9
X117.04Y-111.3
X117.04Y-113.84
X117.14Y-86.87
X119.56Y-50.36
X119.56Y-52.9
X119.58Y-111.3
X119.58Y-113.84
X119.68Y-86.87
X122.06Y-45.175
X122.1Y-50.36
X122.1Y-52.9
X122.12Y-111.3
X122.12Y-113.84
X122.22Y-86.87
X124.6Y-45.175
X124.64Y-50.36
X124.64Y-52.9
X124.66Y-111.3
X124.66Y-113.84
X124.76Y-86.87
X127.18Y-50.36
X127.18Y-52.9
X127.2Y-111.3
X127.2Y-113.84
X127.3Y-86.87
X129.84Y-86.87
X139.0Y-47.56
X139.0Y-50.1
X139.0Y-52.64
X139.0Y-55.18
X152.325Y-111.375
X157.325Y-111.375
X203.195Y-75.095
X205.735Y-75.095
X208.275Y-75.095
X210.815Y-75.095
T5
X192.7Y-120.537
X195.24Y-120.537
X197.78Y-120.537
X206.46Y-122.427
X209.0Y-122.427
X211.54Y-122.427
T6
X63.99Y-68.53
X63.99Y-73.53
X67.35Y-132.54
X67.35Y-137.54
T7
X160.81Y-130.175
X160.81Y-134.875
X160.81Y-139.575
X170.34Y-128.27
X170.34Y-141.48
T8
X143.67Y-139.0
X150.87Y-139.0
T4
G00X201.05Y-135.0
M15
G01X203.65Y-135.0
M16
G05
G00X201.25Y-141.3
M15
G01X203.45Y-141.3
M16
G05
G00X207.15Y-136.8
M15
G01X207.15Y-139.0
M16
G05
T0
M30
